<?xml version="1.0" standalone="no"?>
<!DOCTYPE svg PUBLIC "-//W3C//DTD SVG 20010904//EN"
 "http://www.w3.org/TR/2001/REC-SVG-20010904/DTD/svg10.dtd">
<svg version="1.0" xmlns="http://www.w3.org/2000/svg"
 width="256.000000pt" height="243.000000pt" viewBox="0 0 256.000000 243.000000"
 preserveAspectRatio="xMidYMid meet">
<metadata>
Created by potrace 1.15, written by Peter Selinger 2001-2017
</metadata>
<g transform="translate(0.000000,243.000000) scale(0.100000,-0.100000)"
fill="#ffffff" stroke="none">
<path d="M1216 2411 c-12 -13 -19 -44 -23 -95 -6 -75 -6 -76 -32 -70 -14 4
-53 18 -86 33 -99 43 -235 28 -243 -27 -5 -31 18 -37 87 -22 51 11 63 10 100
-6 l43 -19 -138 0 c-130 0 -145 -2 -234 -32 -187 -63 -332 -152 -450 -274
-362 -374 -302 -1047 128 -1450 178 -167 435 -294 669 -331 54 -8 79 -16 73
-22 -15 -15 -12 -56 6 -63 8 -3 46 6 82 21 37 14 72 26 77 26 6 -1 26 -14 45
-30 42 -37 63 -38 88 -4 l19 27 71 -37 c108 -58 155 -36 93 43 -17 21 -31 41
-31 44 0 3 19 8 43 12 125 21 360 130 488 227 89 67 213 195 270 280 207 305
254 723 114 1024 -108 235 -310 403 -602 500 -114 39 -192 46 -348 32 -78 -7
-79 -7 -45 9 21 9 66 16 115 17 73 1 80 3 83 22 5 35 -21 46 -107 46 -67 0
-90 -4 -133 -25 -29 -14 -65 -30 -80 -36 -26 -10 -28 -8 -34 24 -3 20 -3 56 1
81 9 61 -12 94 -59 94 -20 0 -40 -8 -50 -19z m-65 -356 c123 -16 132 -16 319
5 210 24 241 22 359 -17 180 -60 356 -176 446 -294 102 -136 147 -279 148
-474 1 -206 -50 -375 -164 -544 -64 -96 -203 -237 -294 -298 -201 -135 -430
-203 -685 -203 -147 0 -268 19 -392 60 -178 60 -306 138 -441 269 -149 145
-241 303 -289 498 -30 121 -29 314 1 428 70 267 252 449 555 554 148 52 162
53 437 16z"/>
<path d="M2049 858 c-133 -190 -366 -354 -600 -421 -79 -23 -102 -38 -81 -51
17 -10 182 43 277 88 103 50 206 120 294 202 67 62 181 207 181 230 0 31 -29
11 -71 -48z"/>
</g>
</svg>
